<?xml version="1.0" encoding="utf-8"?>
<!-- Generator: Adobe Illustrator 22.1.0, SVG Export Plug-In . SVG Version: 6.00 Build 0)  -->
<svg version="1.1" id="Layer_1" xmlns="http://www.w3.org/2000/svg" xmlns:xlink="http://www.w3.org/1999/xlink" x="0px" y="0px"
	 viewBox="0 0 1080 1080" style="enable-background:new 0 0 1080 1080;" xml:space="preserve">
<style type="text/css">
	.st0{fill:#8BA878;}
	.st1{fill:none;}
</style>
<g>
	<path class="st0" d="M158.5,169l14.7-13.3l36.3,19.5l0.1-0.1l-15.9-38l14.6-13.3l40,44.1l-9.7,8.8l-30.7-33.8l-0.1,0.1l19.1,44.3
		l-7.4,6.7l-41.8-23.7l-0.1,0.1l30.7,33.8l-9.7,8.8L158.5,169z"/>
	<path class="st0" d="M280.2,76.7l9.5-5.2l51.3,39.8l-13,7.1l-10.6-8.6l-20.3,11.1l1.7,13.4l-12.7,6.9L280.2,76.7z M292.9,89.4
		l2.5,19.7l12.8-7L292.9,89.4z"/>
	<path class="st0" d="M367.6,36.9l18.9-5.5c4.6-1.3,9.1-2.1,13.5-2.2c4.4-0.2,8.5,0.5,12.2,1.9s7,3.7,9.9,6.8
		c2.9,3.1,5,7.3,6.6,12.6c1.3,4.6,1.6,9,0.9,13s-2.2,7.7-4.5,10.9c-2.3,3.3-5.2,6.1-8.7,8.4c-3.5,2.4-7.4,4.1-11.7,5.4l-20.6,5.9
		L367.6,36.9z M393.4,78.9l6.5-1.9c2.9-0.8,5.5-1.9,7.9-3.2c2.3-1.3,4.2-2.9,5.7-4.8c1.4-1.9,2.4-4.1,2.8-6.7
		c0.4-2.5,0.1-5.4-0.8-8.7c-0.8-2.8-2-5.1-3.7-6.9c-1.6-1.8-3.6-3.1-5.7-3.9c-2.2-0.8-4.5-1.2-7.1-1.2s-5.2,0.4-7.8,1.2l-7.4,2.1
		L393.4,78.9z"/>
	<path class="st0" d="M482,11.7l40.3-2.9l0.9,12.1l-27.3,2l0.8,11.1l25.7-1.9l0.9,12.1L497.6,46l0.9,12.1l28.8-2.1l0.9,12.1l-41.9,3
		L482,11.7z"/>
	<path class="st0" d="M660.6,22.3l21.4,5.9c2.5,0.7,4.9,1.5,7.4,2.6c2.4,1,4.5,2.4,6.2,4s2.9,3.5,3.7,5.8c0.7,2.2,0.7,4.9-0.2,8.1
		c-0.9,3.2-2.5,5.7-4.9,7.3s-5.2,2.5-8.4,2.6v0.2c1.8,0.8,3.4,1.8,4.7,3s2.4,2.6,3.1,4.1c0.8,1.5,1.2,3.2,1.4,5
		c0.1,1.8,0,3.6-0.5,5.4c-0.8,3-2.2,5.4-4,7c-1.9,1.7-4,2.8-6.4,3.5s-5,0.9-7.7,0.8c-2.7-0.2-5.3-0.6-7.9-1.3L645,79.8L660.6,22.3z
		 M660.4,72.4l11.4,3.1c1,0.3,2,0.4,3,0.5s2.1-0.1,3-0.4c1-0.3,1.8-0.8,2.6-1.6c0.8-0.7,1.3-1.7,1.6-2.9c0.4-1.4,0.3-2.5-0.1-3.6
		c-0.4-1-1.1-1.9-2-2.6s-1.9-1.3-3.1-1.8c-1.1-0.5-2.2-0.9-3.3-1.2l-9.6-2.6L660.4,72.4z M666.9,48.7l9.2,2.5c1,0.3,2,0.4,3,0.5
		c1,0,2-0.1,2.8-0.4c0.9-0.3,1.7-0.8,2.4-1.4c0.7-0.7,1.2-1.6,1.5-2.7c0.3-1.2,0.3-2.2,0-3.2c-0.3-0.9-0.8-1.7-1.5-2.4
		s-1.5-1.2-2.5-1.7s-2-0.8-2.9-1.1l-8.6-2.4L666.9,48.7z"/>
	<path class="st0" d="M759.4,93.9L755,53.4l14.5,7.4l1.1,25.6l22-13.8l13.9,7.1L771.1,100l-11.5,22.6l-11.7-6L759.4,93.9z"/>
	<path class="st0" d="M903.5,208.8c-2,1.9-4,3.6-6.2,5.1s-4.5,2.4-6.8,2.8c-2.4,0.4-4.9,0.2-7.5-0.8c-2.6-0.9-5.3-2.9-8.1-5.8
		c-3.3-3.4-5.3-7-5.9-10.9c-0.7-3.9,0.4-7.8,3.1-11.9l10.5,6.6c-0.9,1.1-1.4,2.5-1.3,4c0.1,1.5,0.6,2.8,1.6,3.9
		c1.1,1.1,2.1,1.7,3.3,1.7c1.1,0.1,2.2-0.1,3.3-0.6s2.1-1.2,3.1-2c1-0.9,1.9-1.7,2.7-2.5l27.3-26.6l9.2,9.4L903.5,208.8z"/>
	<path class="st0" d="M983,246.8l5.9,9.1L953,310l-8-12.4l7.8-11.2L940.2,267l-13.3,2.7l-7.9-12.1L983,246.8z M971.2,260.5l-19.5,4
		l7.9,12.2L971.2,260.5z"/>
	<path class="st0" d="M1028.1,372.8c1-1.8,1.6-3.7,1.7-5.7c0.1-2.1-0.2-4.2-1.1-6.5s-2.1-4.3-3.8-5.9c-1.6-1.6-3.5-2.9-5.7-3.7
		c-2.1-0.8-4.5-1.3-7-1.2c-2.5,0-5.1,0.5-7.6,1.5c-2.6,1-4.9,2.3-6.7,3.9c-1.9,1.6-3.3,3.5-4.4,5.5s-1.7,4.2-1.9,6.4
		c-0.2,2.3,0.2,4.5,1,6.7c0.9,2.5,2.3,4.5,4.1,6.1c1.8,1.5,3.9,2.6,6.2,3.1l-3.8,13.1c-4.2-1.1-7.8-3.2-10.7-6.2s-5.1-6.5-6.6-10.3
		c-1.6-4.4-2.5-8.6-2.5-12.8c0-4.2,0.7-8.1,2.3-11.7c1.5-3.6,3.8-6.9,6.9-9.7c3.1-2.9,6.8-5.1,11.3-6.8c4.5-1.7,8.8-2.5,13-2.3
		c4.2,0.1,8.1,1.1,11.6,2.8c3.6,1.7,6.7,4.2,9.5,7.3c2.7,3.2,4.9,6.9,6.6,11.3c0.6,1.6,1.1,3.3,1.4,5.1c0.4,1.8,0.5,3.7,0.5,5.6
		s-0.2,3.8-0.7,5.7c-0.5,1.9-1.2,3.8-2.3,5.5L1028.1,372.8z"/>
	<path class="st0" d="M1061.5,437l2,13l-24.4,3.7l27.9,19.2l2.6,17l-31.3-22.1l-27.2,33.2l-2.7-18.1l24.3-28.2l-27.9,4.2l-2-13
		L1061.5,437z"/>
	<path class="st0" d="M1071.1,547.9l-0.3,13.1l-59.5-1.6l0.3-13.1L1071.1,547.9z"/>
	<path class="st0" d="M1064.8,624.3l-7.9,39.7l-11.9-2.4l5.3-26.8l-10.9-2.2l-5,25.3l-11.9-2.4l5-25.3l-11.9-2.4l-5.6,28.3
		l-11.9-2.4l8.2-41.2L1064.8,624.3z"/>
	<path class="st0" d="M962.4,765.8c0.9,0.5,1.7,1.2,2.4,2c0.6,0.8,1.1,1.7,1.4,2.6c0.3,1,0.3,1.9,0.2,3c-0.1,1-0.4,2-1,2.9
		c-0.5,0.9-1.2,1.7-2,2.4c-0.8,0.6-1.7,1.1-2.6,1.4c-1,0.3-1.9,0.3-3,0.2c-1-0.1-2-0.4-2.9-1c-0.9-0.5-1.7-1.2-2.4-2
		c-0.6-0.8-1.1-1.7-1.4-2.6c-0.3-1-0.3-1.9-0.2-3c0.1-1,0.4-2,1-2.9c0.5-0.9,1.2-1.7,2-2.4s1.7-1.1,2.6-1.4c1-0.3,1.9-0.3,3-0.2
		C960.5,764.9,961.4,765.2,962.4,765.8z"/>
	<path class="st0" d="M917.9,914.7l-14.8,13.2L867,908l-0.1,0.1l15.5,38.2l-14.8,13.1L828.1,915l9.8-8.7l30.4,34.1l0.1-0.1
		l-18.7-44.5l7.5-6.7l41.6,24.1l0.1-0.1L868.5,879l9.8-8.7L917.9,914.7z"/>
	<path class="st0" d="M795.4,1005.8l-9.6,5.1l-50.9-40.3l13.1-7l10.5,8.7l20.4-10.9l-1.6-13.5l12.8-6.8L795.4,1005.8z M782.8,992.9
		l-2.3-19.7l-12.8,6.9L782.8,992.9z"/>
	<path class="st0" d="M707.5,1044.7l-19,5.3c-4.6,1.3-9.1,2-13.5,2.1s-8.5-0.5-12.2-2c-3.7-1.4-7-3.7-9.8-6.9
		c-2.8-3.2-5-7.4-6.4-12.6c-1.3-4.6-1.5-9-0.8-13c0.8-4,2.3-7.7,4.6-10.9s5.2-6,8.8-8.3c3.5-2.3,7.4-4.1,11.7-5.3l20.7-5.7
		L707.5,1044.7z M682.2,1002.5l-6.6,1.8c-2.9,0.8-5.5,1.9-7.9,3.2c-2.3,1.3-4.2,2.9-5.7,4.8c-1.5,1.9-2.4,4.1-2.8,6.6
		c-0.4,2.5-0.2,5.4,0.7,8.7c0.8,2.8,2,5.1,3.6,6.9s3.5,3.1,5.7,4s4.5,1.3,7.1,1.3s5.2-0.4,7.9-1.1l7.5-2.1L682.2,1002.5z"/>
	<path class="st0" d="M593,1068.8l-40.4,2.5l-0.8-12.1l27.3-1.7l-0.7-11.1l-25.8,1.6l-0.8-12.1l25.8-1.6l-0.8-12.1L548,1024
		l-0.8-12.1l41.9-2.6L593,1068.8z"/>
	<path class="st0" d="M414.4,1056.6l-21.3-6.1c-2.5-0.7-4.9-1.6-7.3-2.7s-4.5-2.4-6.2-4s-2.9-3.6-3.6-5.8c-0.7-2.2-0.6-4.9,0.3-8.1
		s2.6-5.7,5-7.3c2.4-1.6,5.2-2.5,8.5-2.5v-0.2c-1.8-0.8-3.4-1.8-4.7-3c-1.3-1.2-2.4-2.6-3.1-4.1c-0.8-1.5-1.2-3.2-1.3-5
		c-0.1-1.8,0.1-3.6,0.6-5.4c0.9-3,2.2-5.4,4.1-7c1.9-1.7,4-2.8,6.4-3.5s5-0.9,7.7-0.7s5.3,0.6,7.9,1.4l23.5,6.7L414.4,1056.6z
		 M408.3,1030.1l-9.1-2.6c-1-0.3-2-0.4-3-0.5s-2,0.1-2.8,0.3s-1.7,0.7-2.4,1.4c-0.7,0.7-1.2,1.6-1.5,2.7c-0.3,1.2-0.4,2.2-0.1,3.2
		c0.3,0.9,0.8,1.7,1.5,2.4c0.7,0.7,1.5,1.2,2.5,1.7s1.9,0.9,2.9,1.1l8.6,2.4L408.3,1030.1z M415.1,1006.4l-11.3-3.2
		c-1-0.3-2-0.4-3-0.5s-2.1,0.1-3,0.4c-1,0.3-1.8,0.8-2.6,1.5c-0.8,0.7-1.3,1.7-1.7,2.9c-0.4,1.3-0.4,2.5,0.1,3.6
		c0.4,1,1.1,1.9,2,2.6c0.9,0.7,1.9,1.3,3.1,1.8c1.1,0.5,2.2,0.9,3.2,1.2l9.5,2.7L415.1,1006.4z"/>
	<path class="st0" d="M316.3,983.9l4,40.6l-14.5-7.5l-0.9-25.6l-22.2,13.6l-13.8-7.2l35.6-19.9l11.7-22.5l11.6,6.1L316.3,983.9z"/>
	<path class="st0" d="M173.3,867.7c2-1.9,4.1-3.6,6.3-5s4.5-2.4,6.8-2.8c2.4-0.4,4.9-0.1,7.4,0.9c2.6,1,5.3,2.9,8.1,5.8
		c3.3,3.4,5.2,7.1,5.8,11s-0.5,7.8-3.2,11.8l-10.4-6.7c0.9-1.1,1.4-2.5,1.3-4c-0.1-1.5-0.6-2.8-1.6-3.9c-1-1.1-2.1-1.7-3.3-1.8
		c-1.1-0.1-2.2,0.1-3.3,0.6s-2.1,1.2-3.1,2s-1.9,1.7-2.7,2.4l-27.6,26.4l-9.1-9.5L173.3,867.7z"/>
	<path class="st0" d="M94.2,828.9l-5.8-9.2l36.4-53.7l7.9,12.5l-7.9,11.1l12.4,19.5l13.3-2.6l7.7,12.2L94.2,828.9z M106.1,815.4
		l19.5-3.8l-7.8-12.3L106.1,815.4z"/>
	<path class="st0" d="M50.3,702.5c-1,1.8-1.6,3.7-1.8,5.7c-0.1,2.1,0.2,4.2,1.1,6.6c0.8,2.3,2.1,4.3,3.7,5.9
		c1.6,1.6,3.5,2.9,5.6,3.8c2.1,0.9,4.5,1.3,7,1.3c2.5,0,5.1-0.5,7.6-1.4c2.6-1,4.9-2.3,6.8-3.9c1.9-1.6,3.4-3.4,4.5-5.4
		s1.7-4.1,1.9-6.4c0.2-2.2-0.1-4.5-0.9-6.7c-0.9-2.5-2.3-4.6-4-6.1c-1.8-1.6-3.8-2.6-6.2-3.2l3.9-13.1c4.2,1.2,7.7,3.3,10.6,6.3
		c2.9,3.1,5.1,6.5,6.5,10.3c1.6,4.4,2.4,8.6,2.4,12.8s-0.8,8.1-2.4,11.7c-1.6,3.6-3.9,6.8-7,9.7c-3.1,2.8-6.9,5.1-11.3,6.7
		c-4.5,1.6-8.8,2.4-13,2.2s-8-1.1-11.6-2.9c-3.5-1.7-6.7-4.2-9.4-7.4s-4.9-7-6.5-11.3c-0.6-1.6-1-3.3-1.4-5.1
		c-0.3-1.8-0.5-3.7-0.5-5.6c0-1.9,0.3-3.8,0.8-5.7s1.3-3.8,2.4-5.5L50.3,702.5z"/>
	<path class="st0" d="M17.5,638l-1.8-13l24.5-3.5l-27.7-19.4l-2.4-17l31.1,22.4l27.5-32.9l2.6,18.2l-24.6,27.9l28-4l1.8,13L17.5,638
		z"/>
	<path class="st0" d="M9,527l0.5-13.1L69,516l-0.5,13.1L9,527z"/>
	<path class="st0" d="M16,450.7l8.3-39.6l11.9,2.5l-5.6,26.8l10.9,2.3l5.3-25.3l11.9,2.5L53.3,445l11.9,2.5l5.9-28.2l11.9,2.5
		l-8.6,41.1L16,450.7z"/>
	<path class="st0" d="M119.8,310.2c-0.9-0.5-1.7-1.2-2.3-2c-0.6-0.8-1.1-1.7-1.3-2.7c-0.3-1-0.3-1.9-0.2-3c0.1-1,0.5-2,1-2.9
		s1.2-1.7,2-2.3c0.8-0.6,1.7-1.1,2.7-1.3c1-0.3,1.9-0.3,3-0.2c1,0.1,2,0.5,2.9,1s1.7,1.2,2.3,2c0.6,0.8,1.1,1.7,1.3,2.7
		c0.3,1,0.3,1.9,0.2,3c-0.1,1-0.5,2-1,2.9s-1.2,1.7-2,2.3c-0.8,0.6-1.7,1.1-2.7,1.3c-1,0.3-1.9,0.3-3,0.2
		C121.7,311,120.7,310.7,119.8,310.2z"/>
</g>
<line class="st1" x1="533.1" y1="529.3" x2="546.9" y2="550.7"/>
<path class="st0" d="M540,251.6c-159.3,0-288.4,129.1-288.4,288.4S380.7,828.4,540,828.4S828.4,699.3,828.4,540
	S699.3,251.6,540,251.6z M416.2,484c-15.8,0-28.6-12.8-28.6-28.6s12.8-28.6,28.6-28.6s28.6,12.8,28.6,28.6S432,484,416.2,484z
	 M572.3,661.5c0,35.7-28.9,64.6-64.6,64.6l0,0V418.5c0-35.7,28.9-64.6,64.6-64.6l0,0V661.5z M663.8,653.1
	c-15.8,0-28.6-12.8-28.6-28.6S648,596,663.8,596s28.6,12.8,28.6,28.6S679.6,653.1,663.8,653.1z"/>
</svg>
